<svg xmlns="http://www.w3.org/2000/svg" viewBox="0 0 128 128" fill="none">
  <defs>
    <linearGradient id="bg" x1="0" y1="0" x2="128" y2="128" gradientUnits="userSpaceOnUse">
      <stop offset="0%" stop-color="#0f172a"/>
      <stop offset="55%" stop-color="#1e293b"/>
      <stop offset="100%" stop-color="#0f766e"/>
    </linearGradient>
    <linearGradient id="lantern" x1="36" y1="24" x2="92" y2="96" gradientUnits="userSpaceOnUse">
      <stop offset="0%" stop-color="#fbbf24"/>
      <stop offset="50%" stop-color="#f59e0b"/>
      <stop offset="100%" stop-color="#ea580c"/>
    </linearGradient>
  </defs>
  <rect width="128" height="128" rx="28" fill="url(#bg)"/>
  <!-- Hoi An Silk Lantern -->
  <line x1="64" y1="12" x2="64" y2="26" stroke="#fcd34d" stroke-width="4" stroke-linecap="round"/>
  <rect x="52" y="24" width="24" height="6" rx="3" fill="#78350f"/>
  <ellipse cx="64" cy="58" rx="28" ry="30" fill="url(#lantern)"/>
  <path d="M50 30 C42 46, 42 70, 50 86" stroke="#78350f" stroke-width="2.5" fill="none" opacity="0.5"/>
  <path d="M78 30 C86 46, 86 70, 78 86" stroke="#78350f" stroke-width="2.5" fill="none" opacity="0.5"/>
  <line x1="64" y1="28" x2="64" y2="88" stroke="#fef3c7" stroke-width="2.5" opacity="0.7"/>
  <rect x="52" y="86" width="24" height="6" rx="3" fill="#78350f"/>
  <!-- Tassel / Route Line -->
  <path d="M60 92 L56 112 M64 92 L64 114 M68 92 L72 112" stroke="#f43f5e" stroke-width="3" stroke-linecap="round"/>
  <!-- Camera lens badge -->
  <circle cx="94" cy="92" r="16" fill="#0f172a" stroke="#38bdf8" stroke-width="3"/>
  <circle cx="94" cy="92" r="7" fill="#38bdf8"/>
</svg>
